<svg xmlns="http://www.w3.org/2000/svg" viewBox="0 0 512 256" aria-label="XR glasses icon (Catppuccin)" style="--ctp-crust:#11111B;--ctp-mantle:#181825;--ctp-base:#1E1E2E;--ctp-surface0:#313244;--ctp-surface1:#45475A;--ctp-text:#CDD6F4;--ctp-blue:#89B4FA;--ctp-lavender:#B4BEFE;--ctp-mauve:#CBA6F7"><defs><linearGradient id="b" x1="0" y1="0" x2="1" y2="1"><stop offset="0" stop-color="var(--ctp-surface1)"/><stop offset=".55" stop-color="var(--ctp-surface0)"/><stop offset="1" stop-color="var(--ctp-crust)"/></linearGradient><linearGradient id="c" x1="0" y1="0" x2="1" y2="0"><stop offset="0" stop-color="var(--ctp-blue)" stop-opacity=".45"/><stop offset=".6" stop-color="var(--ctp-lavender)" stop-opacity=".28"/><stop offset="1" stop-color="var(--ctp-mauve)" stop-opacity=".18"/></linearGradient><linearGradient id="e" x1="0" y1="0" x2="0" y2="1"><stop offset="0" stop-color="var(--ctp-blue)" stop-opacity=".35"/><stop offset="1" stop-color="var(--ctp-blue)" stop-opacity="0"/></linearGradient><filter id="a" x="-20%" y="-40%" width="140%" height="200%"><feGaussianBlur in="SourceAlpha" stdDeviation="6" result="blur"/><feOffset dy="8" result="off"/><feColorMatrix in="off" values="0 0 0 0 0 0 0 0 0 0 0 0 0 0 0 0 0 0 0.35 0" result="shadowColor"/><feMerge><feMergeNode in="shadowColor"/><feMergeNode in="SourceGraphic"/></feMerge></filter><filter id="d" x="-30%" y="-60%" width="160%" height="220%"><feGaussianBlur stdDeviation="3" result="g"/><feColorMatrix in="g" values="1 0 0 0 0 0 1 0 0 0 0 0 1 0 0 0 0 0 0.35 0"/></filter></defs><g filter="url(#a)"><path d="M62 118c-16 6-28 18-34 34-2 5 1 10 6 12s10-1 12-6c5-12 14-21 26-26 5-2 7-7 5-12s-7-7-15-2" fill="url(#b)" opacity=".95"/><path d="M450 118c16 6 28 18 34 34 2 5-1 10-6 12s-10-1-12-6c-5-12-14-21-26-26-5-2-7-7-5-12s7-7 15-2" fill="url(#b)" opacity=".95"/><path d="M88 86c32-24 80-32 126-24 21 4 32 16 42 30 10-14 21-26 42-30 46-8 94 0 126 24 21 15 28 36 22 58-7 26-31 42-62 44-42 3-78-16-96-44-9-14-17-20-32-20s-23 6-32 20c-18 28-54 47-96 44-31-2-55-18-62-44-6-22 1-43 22-58" fill="url(#b)"/><path d="M98 102c27-20 66-26 104-19 18 3 27 17 24 35-5 32-33 52-70 50-30-1-53-16-60-39-6-15-6-21 2-27" fill="url(#c)"/><path d="M414 102c-27-20-66-26-104-19-18 3-27 17-24 35 5 32 33 52 70 50 30-1 53-16 60-39 6-15 6-21-2-27" fill="url(#c)"/><path d="M98 102c27-20 66-26 104-19 18 3 27 17 24 35-5 32-33 52-70 50-30-1-53-16-60-39-6-15-6-21 2-27Z" fill="none" stroke="var(--ctp-blue)" stroke-opacity=".28" stroke-width="3" filter="url(#d)"/><path d="M414 102c-27-20-66-26-104-19-18 3-27 17-24 35 5 32 33 52 70 50 30-1 53-16 60-39 6-15 6-21-2-27Z" fill="none" stroke="var(--ctp-blue)" stroke-opacity=".22" stroke-width="3" filter="url(#d)"/><path d="M236 106c8-10 14-14 20-14s12 4 20 14c-6 6-12 10-20 10s-14-4-20-10" fill="var(--ctp-mantle)" opacity=".95"/><path d="M102 92c33-20 76-24 114-16 16 4 26 12 40 28 14-16 24-24 40-28 38-8 81-4 114 16-30-6-72-6-106 0-16 3-30 12-48 30-18-18-32-27-48-30-34-6-76-6-106 0" fill="url(#e)" opacity=".3"/></g></svg>